<?xml version="1.0" encoding="UTF-8" standalone="no"?>
<!-- Created with Inkscape (http://www.inkscape.org/) -->

<svg
   version="1.1"
   id="svg2"
   width="1175.36"
   height="1635.84"
   viewBox="0 0 1175.36 1635.84"
   sodipodi:docname="path22.svg"
   inkscape:version="1.1.2 (0a00cf5339, 2022-02-04)"
   xmlns:inkscape="http://www.inkscape.org/namespaces/inkscape"
   xmlns:sodipodi="http://sodipodi.sourceforge.net/DTD/sodipodi-0.dtd"
   xmlns="http://www.w3.org/2000/svg"
   xmlns:svg="http://www.w3.org/2000/svg">
  <defs
     id="defs6" />
  <sodipodi:namedview
     id="namedview4"
     pagecolor="#ffffff"
     bordercolor="#666666"
     borderopacity="1.0"
     inkscape:pageshadow="2"
     inkscape:pageopacity="0.0"
     inkscape:pagecheckerboard="0"
     showgrid="false"
     inkscape:zoom="1"
     inkscape:cx="587"
     inkscape:cy="818"
     inkscape:window-width="1920"
     inkscape:window-height="1029"
     inkscape:window-x="0"
     inkscape:window-y="27"
     inkscape:window-maximized="1"
     inkscape:current-layer="g8" />
  <g
     inkscape:groupmode="layer"
     inkscape:label="Image"
     id="g8">
    <path
       style="fill:#000000;stroke-width:0.32"
       d="m 418.10307,1635.4907 c -4.25389,-0.525 -8.95481,-2.3798 -10.65859,-4.2056 -1.03981,-1.1143 -2.39898,-4.0486 -2.56739,-5.5426 -0.12608,-1.1188 0.0675,-1.7617 1.16272,-3.8623 2.83686,-5.441 5.54995,-7.9401 12.20019,-11.238 6.62698,-3.2863 15.88506,-9.6849 27.21632,-18.8101 14.25315,-11.4783 21.66205,-19.3646 29.9049,-31.8321 6.21459,-9.3996 14.48492,-25.728 18.54764,-36.6191 2.17664,-5.8351 4.66452,-16.729 4.22256,-18.4899 -0.3479,-1.3862 -2.39872,-1.7759 -13.97142,-2.6544 -18.07811,-1.3725 -30.0417,-3.086 -41.28,-5.9124 -17.21536,-4.3297 -54.8536,-15.3029 -66.25389,-19.3159 -16.02813,-5.642 -41.83536,-15.9495 -56.78611,-22.6805 -3.696,-1.664 -7.728,-3.3536 -8.96,-3.7547 -7.04779,-2.2946 -16.29861,-6.5121 -40.38833,-18.4131 -16.43076,-8.1173 -25.77217,-12.9655 -35.93167,-18.6488 -14.35192,-8.0286 -39.08275,-22.6331 -48.44137,-28.6065 -8.22807,-5.2517 -26.34974,-18.5362 -41.24682,-30.2367 -31.00158,-24.3493 -59.72733,-52.7498 -80.216328,-79.308 -20.824279,-26.9928 -36.886516,-55.4093 -48.656162,-86.08 -4.69244,-12.2281 -8.8249459,-27.7928 -12.914167,-48.64 -2.53086599,-12.9026 -2.78860949,-16.2178 -2.98541112,-38.4 -0.22867079,-25.7743 0.10198088,-31.6331 2.42901672,-43.04 C 9.3797984,1025.617 17.214062,1003.3379 33.950237,969.84368 46.421504,944.88486 56.39496,928.84931 69.727622,912.32 82.149418,896.91994 99.282899,879.78755 114.72,867.33053 c 9.17276,-7.40202 20.79039,-15.54586 28.48,-19.96416 14.38653,-8.26627 36.98075,-18.40243 56,-25.12263 8.39295,-2.96553 11.48228,-4.32854 12.88087,-5.68297 1.21461,-1.17626 2.08897,-3.33664 7.00551,-17.30947 6.37743,-18.12468 9.83025,-26.59341 15.35096,-37.6513 8.98847,-18.00378 18.30731,-30.77574 32.80671,-44.96336 28.75074,-28.13251 55.15771,-41.63539 95.95595,-49.06582 16.65318,-3.033 33.82406,-5.17309 53.27216,-6.63956 13.60986,-1.02624 69.27968,-0.89971 93.44784,0.21239 3.872,0.17817 11.99034,0.82173 18.04074,1.43014 12.51027,1.25802 15.00323,1.35664 15.29164,0.60512 0.54189,-1.41219 -8.46524,-8.10969 -16.95724,-12.60902 -3.76468,-1.99466 -11.00592,-4.84384 -15.81367,-6.22215 -9.06595,-2.59904 -47.10518,-9.43772 -65.20147,-11.72185 -3.56189,-0.4496 -19.14963,-0.4457 -29.63478,0.007 -55.89184,2.41536 -113.26913,8.29481 -137.40522,14.0799 -9.16962,2.19786 -17.46244,4.86829 -42.15476,13.57466 -37.95152,13.38144 -48.99369,16.57923 -64.29844,18.6207 -8.15878,1.08829 -35.92828,0.86023 -43.4668,-0.35699 -3.52779,-0.5696 -10.84238,-2.96006 -16.8,-5.49034 -20.785901,-8.82796 -31.667741,-21.22416 -39.323651,-44.796 -4.46832,-13.75756 -5.994563,-24.50508 -6.013389,-42.34524 -0.01757,-16.64554 1.315766,-26.29972 5.022458,-36.36586 1.535644,-4.1703 6.094051,-13.42326 8.096156,-16.43414 2.984199,-4.48781 9.556621,-11.27092 15.098426,-15.58244 14.71863,-11.45107 32.0516,-15.29724 64.01831,-14.20572 24.5051,0.83676 28.36899,1.63769 67.34169,13.95881 41.55179,13.13655 62.81669,18.94691 90.88,24.83191 21.1576,4.43686 30.14285,5.54966 64.64,8.0056 2.992,0.21299 9.77315,0.39731 15.06925,0.40956 10.7176,0.025 11.08944,-0.0385 10.21053,-1.73817 -1.15684,-2.23706 -8.77322,-7.48909 -16.45616,-11.34768 -6.12292,-3.07514 -18.44813,-7.86519 -33.77466,-13.12621 -18.29501,-6.27997 -25.55581,-9.05453 -35.20896,-13.4544 -4.69355,-2.13926 -25.32233,-12.45683 -43.84,-21.92672 -17.70843,-9.05606 -29.50983,-14.37421 -37.87448,-17.06762 -10.25554,-3.30224 -17.86292,-4.25097 -40.04552,-4.99408 -22.96372,-0.76931 -36.12197,-1.64912 -48.27687,-3.228 -26.07763,-3.38739 -46.51819,-11.78204 -57.857556,-23.76131 -4.14295,-4.37673 -7.122028,-9.35574 -7.813203,-13.05837 -0.49808,-2.66822 -0.74079,-32.92278 -0.329517,-41.0751 0.395485,-7.83933 0.809757,-10.24534 3.106794,-18.04358 4.077213,-13.8418 9.759242,-26.33053 17.705872,-38.91642 10.95305,-17.34745 30.30453,-37.54824 46.67765,-48.72626 15.83079,-10.80778 30.82778,-16.94274 45.62072,-18.66251 3.98717,-0.46353 10.86114,-0.19969 13.48611,0.51764 12.59184,3.44098 33.51611,22.43603 54.27532,49.27113 2.04226,2.64 6.20217,8.256 9.24424,12.48 27.37326,38.00848 39.43202,53.54486 51.04054,65.76 8.03728,8.45728 16.26992,15.11014 53.27651,43.05312 25.93203,19.58077 30.34937,22.63952 43.59014,30.18365 11.4841,6.54323 32.25463,17.40755 35.89431,18.77501 1.50518,0.56553 1.57616,0.56582 1.98409,0.008 0.95511,-1.30618 -0.51891,-5.02013 -7.37398,-18.57972 -16.52413,-32.68537 -40.21773,-72.43747 -65.70666,-110.24 -16.40896,-24.33603 -25.1088,-35.89912 -36.83648,-48.96 -6.90905,-7.69446 -13.14857,-14.11061 -38.12079,-39.2 -14.71497,-14.784 -29.53881,-29.76 -32.94188,-33.28 -13.15325,-13.60522 -15.49779,-18.22533 -16.33647,-32.19228 -0.93017,-15.49071 1.74328,-24.5385 11.94651,-40.43072 3.19247,-4.97248 7.95535,-11.73907 10.13061,-14.39246 5.43382,-6.62822 16.33936,-15.30024 25.31239,-20.12826 13.10531,-7.05144 45.44198,-18.20819 59.98752,-20.69682 9.04842,-1.54811 15.53187,-2.05345 26.39408,-2.05724 9.29971,-0.003 10.83008,0.0712 14.46506,0.70352 11.55299,2.00972 19.61897,6.44388 28.34268,15.58099 3.46893,3.63329 6.71348,8.14589 7.51351,10.44993 0.268,0.77184 0.66704,2.19534 0.88675,3.16334 0.21971,0.968 1.25942,4.136 2.31046,7.04 3.81472,10.53998 4.47213,14.73081 7.605,48.48 3.8056,40.99623 6.9255,59.858 14.76777,89.28 7.70509,28.90748 14.79565,47.95069 27.16586,72.96 7.00515,14.1625 14.62912,26.76906 25.01593,41.3648 6.60612,9.28301 13.20442,16.98701 14.93709,17.4401 1.51005,0.39491 2.52199,-2.03354 5.16896,-12.4049 4.76512,-18.67049 7.88039,-34.76332 8.92019,-46.08 1.39652,-15.19916 2.13412,-63.12316 1.2953,-84.16 -1.88736,-47.33377 -8.49018,-74.2813 -29.75581,-121.44 -12.75545,-28.28651 -17.31376,-42.45922 -19.40051,-60.319996 -0.81123,-6.943366 -0.82771,-26.206886 -0.0262,-30.505792 1.02061,-5.473354 3.45424,-11.112525 7.21974,-16.729283 3.25808,-4.859904 6.59328,-8.688946 13.20903,-15.164925 9.24473,-9.049428 14.86969,-13.271921 22.99913,-17.2647882 3.19943,-1.5714303 4.98407,-2.2433112 6.88,-2.5901896 5.83303,-1.06719661 55.5944,-1.40053643 69.44,-0.46516226 15.27021,1.03161846 24.99165,3.17173946 32.77328,7.21486836 4.86327,2.5268097 8.41549,5.2861757 13.9576,10.8422627 7.43296,7.451685 12.26154,13.933796 15.6305,20.983009 3.59389,7.519968 4.51549,12.955123 4.25933,25.12 -0.22301,10.588886 -0.92151,15.80215 -3.62986,27.091213 -1.35945,5.66647 -2.59168,9.481433 -9.8543,30.508783 -8.43943,24.43445 -12.04605,37.16186 -13.78339,48.64 -0.57735,3.81428 -1.06848,5.99966 -2.84074,12.64 -3.91728,14.67738 -7.61805,40.74554 -9.63094,67.84 -0.82954,11.1661 -1.71482,21.22903 -2.56183,29.12 -1.02041,9.50694 -1.18857,13.79447 -1.34691,34.34592 -0.17805,23.10426 0.007,28.43578 1.36202,39.18586 2.45552,19.48509 6.06368,39.93248 8.48428,48.08058 1.09191,3.67552 2.66,7.34764 3.1376,7.34764 0.83159,0 2.70666,-3.18108 7.07322,-12 9.03667,-18.25075 17.00131,-36.25174 28.24637,-63.84 13.27267,-32.56265 27.38867,-71.07294 33.84009,-92.32 5.95684,-19.61827 9.21111,-38.78245 14.07383,-82.88 3.51897,-31.91147 3.90797,-34.69633 5.94512,-42.56 0.7751,-2.992 1.70361,-7.19778 2.06336,-9.34618 0.35977,-2.1484 1.01142,-5.13923 1.44816,-6.64629 1.81152,-6.251113 5.91289,-16.507228 9.30969,-23.280275 8.95207,-17.849885 22.30912,-29.580819 38.01008,-33.382611 16.01981,-3.878995 37.49616,0.773514 69.47344,15.050317 25.19226,11.247507 33.11524,15.362125 38.84336,20.172355 2.93693,2.466282 10.78682,10.348982 13.21751,13.272688 5.83645,7.02031 12.2519,21.023176 14.30048,31.213286 2.36089,11.74381 1.38307,25.40362 -2.70301,37.75949 -3.12198,9.44048 -10.04304,19.45614 -21.72826,31.44349 -9.31689,9.55779 -18.43049,17.61518 -36.97008,32.68548 -33.79814,27.47356 -40.59491,34.52275 -58.98982,61.18062 -19.55139,28.33383 -30.37101,49.35767 -50.03952,97.23296 -12.26083,29.84413 -15.08246,38.78253 -18.31971,58.03363 -1.61114,9.58084 -2.04931,14.08106 -1.85527,19.05399 0.1625,4.16454 0.95562,7.50147 2.08141,8.75705 0.67395,0.75168 2.53831,0.72388 6.57139,-0.098 10.80452,-2.2018 19.07232,-7.87879 41.02983,-28.17268 25.54521,-23.60979 57.47187,-54.81072 67.74921,-66.20928 23.1929,-25.72307 30.08439,-36.71465 49.55642,-79.04 5.91834,-12.86434 14.5055,-30.19981 17.91197,-36.16 6.58745,-11.52588 13.45571,-20.25104 22.01136,-27.96232 14.82563,-13.36248 30.65328,-20.77062 48.33149,-22.62164 5.1577,-0.54005 15.4127,-0.21756 20.5212,0.64534 15.1375,2.55692 28.6407,8.45006 39.68,17.3174 9.2109,7.39869 24.879,24.42075 32.9226,35.76782 8.8435,12.47541 15.4039,27.64637 17.8739,41.3334 0.7663,4.24677 0.8387,5.3858 0.8535,13.44 0.014,7.804 -0.067,9.27085 -0.7189,12.96 -2.4646,13.94906 -9.9839,26.53124 -20.627,34.5154 -7.0703,5.3039 -20.8778,14.19564 -31.7441,20.44252 -5.817,3.3441 -8.1787,4.55386 -18.24,9.34292 -2.464,1.17283 -5.848,2.90137 -7.52,3.84118 -4.2437,2.38534 -20.564,10.59002 -37.59996,18.90262 -66.16851,32.28637 -86.71001,43.93476 -110.52883,62.67703 -8.86144,6.97277 -18.96329,16.25961 -33.63177,30.91833 -10.75357,10.74644 -12.94208,13.21546 -12.47975,14.07936 0.47719,0.89162 2.12615,1.12666 7.52035,1.07194 15.45744,-0.15683 44.6,-3.50938 101.12,-11.63274 24.50135,-3.52144 34.66647,-5.27196 43.84,-7.54956 12.94836,-3.21482 18.58886,-5.56679 45.27996,-18.88084 23.4536,-11.6991 29.5523,-14.38854 37.7106,-16.62976 7.0536,-1.93772 9.8075,-2.21913 21.6494,-2.21232 9.7544,0.005 10.8104,0.061 13.842,0.72647 18.6414,4.09174 33.0814,18.03008 45.9848,44.38745 6.1174,12.49572 8.3611,18.8002 9.7783,27.47472 3.4199,20.9345 -1.2644,52.75108 -11.6983,79.45581 -6.713,17.18144 -14.7539,28.99907 -22.4538,33.00003 -9.5116,4.94237 -20.9566,7.09914 -37.709,7.10602 -11.4863,0.005 -20.0163,-0.72403 -31.984,-2.73254 -20.4747,-3.43623 -37.213,-8.3922 -70.39996,-20.84439 -30.69123,-11.51574 -50.07606,-16.12816 -111.36,-26.49683 -18.52134,-3.13366 -28.90195,-4.57638 -37.93046,-5.27165 -12.09814,-0.93168 -53.41325,-1.36883 -61.74954,-0.65337 -7.67756,0.65894 -12.72537,1.69091 -23.52,4.80841 -11.39651,3.29133 -17.99414,5.81395 -26.4,10.09411 -14.7894,7.53063 -25.67561,15.36532 -29.75644,21.4154 -7.11232,10.54438 -20.72106,42.89049 -20.85514,49.56972 -0.0208,1.04122 0.16634,1.80432 0.58467,2.38314 0.89322,1.23584 7.52647,4.44618 17.55651,8.49693 30.47437,12.30742 49.29572,21.23949 73.74199,34.99581 17.21222,9.6856 43.59437,26.19852 53.28841,33.35392 11.79767,8.70809 27.2738,21.76774 43.04,36.31971 7.62186,7.03485 13.10916,11.75917 14.85239,12.78723 l 1.05494,0.62214 10.68634,-6.57094 c 23.78365,-14.62438 37.58883,-21.85974 55.32633,-28.99674 33.71802,-13.56707 67.01786,-17.63161 96.37246,-11.76313 27.8952,5.57673 52.4721,19.19856 75.8604,42.04595 9.3129,9.09747 16.0541,17.12688 22.4675,26.76054 4.549,6.83319 6.7608,10.69607 10.7583,18.78957 6.4186,12.9953 9.1061,21.28192 14.363,44.28608 2.4727,10.8208 3.0121,14.37747 2.7777,18.31568 -0.7472,12.55187 -7.5602,42.96026 -11.7333,52.36874 -0.8587,1.93603 -1.7779,4.54976 -2.0426,5.80832 -1.3655,6.49155 -14.373,31.17377 -24.3428,46.19167 -20.1533,30.3577 -55.1891,66.9787 -95.3607,99.6752 -17.2678,14.0547 -21.021,17.4249 -23.3263,20.9458 -1.8628,2.8453 -2.1362,3.6476 -3.8571,11.3192 -3.6441,16.2459 -11.7874,40.6738 -21.46171,64.3798 -7.02093,17.2042 -16.41347,36.2088 -26.91683,54.4627 -28.15523,48.9315 -63.60221,89.3389 -107.63802,122.7009 -22.35984,16.94 -45.92268,31.4329 -75.68,46.5489 -20.08547,10.2029 -28.90604,14.1872 -40.69961,18.3844 -38.40919,13.6694 -59.14887,19.2993 -104.34535,28.3252 -19.30531,3.8553 -24.952,4.5811 -35.91504,4.6165 -4.22768,0.014 -7.04368,0.6544 -9.12,2.0753 -3.1968,2.1877 -5.2552,5.3138 -13.27811,20.1661 -20.24169,37.4719 -33.05875,56.5995 -47.82803,71.3765 -9.9729,9.9781 -17.45229,15.0915 -35.06346,23.9718 -19.92678,10.048 -31.95856,14.1824 -50.27212,17.2744 -10.20445,1.7229 -22.36292,2.475 -28.2552,1.7479 z m 100.12736,-263.9523 c 2.13863,-0.224 2.62951,-0.3858 3.04,-1.0017 0.84688,-1.2706 2.18855,-4.541 4.94595,-12.0562 4.88148,-13.3042 7.5817,-19.7123 12.17495,-28.8931 12.4424,-24.8693 34.66403,-51.2071 63.20867,-74.9169 7.26182,-6.0319 10.10646,-7.9708 18.24,-12.4323 2.024,-1.1102 13.976,-8.2052 26.56,-15.7666 29.45952,-17.7014 34.21917,-20.4876 78.56,-45.9871 12.8999,-7.4185 70.10771,-40.1117 79.52,-45.4443 17.1201,-9.6993 32.1552,-18.4246 61.76,-35.8407 18.00499,-10.5922 22.13536,-12.9816 24.49642,-14.1713 0.97968,-0.4937 1.7728,-1.1578 2.01344,-1.686 1.90803,-4.1876 -0.81178,-19.9646 -5.62381,-32.6222 -4.10192,-10.7897 -17.10451,-39.298 -19.14221,-41.9697 -0.52365,-0.6865 -1.09014,-1.0703 -1.57981,-1.0703 -0.46368,0 -1.99619,0.9593 -3.90371,2.4435 -5.29331,4.1188 -7.78826,6.3555 -27.94032,25.0484 -23.67974,21.9651 -29.95162,27.69 -43.68678,39.8763 -67.81114,60.1647 -118.41908,95.8454 -162.228,114.3775 -26.51799,11.2176 -41.21418,14.4862 -74.40522,16.5483 -11.14608,0.6926 -41.11437,0.7931 -50.72,0.1703 -25.66349,-1.6641 -45.53459,-4.6741 -69.12,-10.47 -18.45549,-4.5352 -31.33552,-8.751 -45.76,-14.9779 -7.14646,-3.0851 -8.01712,-3.4907 -15.00909,-6.9929 -18.25139,-9.1418 -34.6567,-19.4885 -50.91091,-32.109 -7.70689,-5.984 -12.70742,-10.4429 -20.97662,-18.7045 -10.87826,-10.8683 -18.73278,-19.9674 -24.7922,-28.7207 -1.55694,-2.2491 -4.10743,-5.7854 -5.66775,-7.8585 -5.98471,-7.9512 -17.00038,-26.0542 -18.83357,-30.9508 -0.6381,-1.7044 -1.33332,-2.8189 -5.78882,-9.28 -6.99606,-10.1452 -15.16335,-27.8841 -21.34049,-46.35037 -3.33607,-9.97299 -5.4028,-17.58457 -7.57274,-27.88963 -2.33564,-11.09197 -3.63891,-13.70723 -6.37999,-12.80259 -3.98144,1.31401 -16.20875,11.56633 -27.5305,23.08374 -13.34294,13.57351 -19.7664,22.51685 -28.96875,40.33285 -14.72613,28.5103 -20.37783,45.0531 -22.0652,64.586 -0.41058,4.7529 -0.40802,17.6293 0.004,22.56 2.30473,27.5484 12.76264,53.764 32.08151,80.4211 14.92946,20.6003 37.38872,43.0509 63.925,63.9003 8.54205,6.7115 12.43828,9.4945 25.26563,18.0467 13.95056,9.301 18.0925,11.8827 30.08,18.7492 27.84674,15.9507 50.13731,27.0519 80,39.8417 46.0839,19.737 97.16294,36.3453 122.4,39.7981 8.10336,1.1086 25.99318,1.7759 31.67043,1.1813 z m 122.00352,-12.6359 c 16.19997,-4.2352 19.53133,-5.1341 26.16605,-7.0604 50.96602,-14.7968 94.71376,-38.17 128.8,-68.8143 11.96397,-10.7558 40.96,-42.6008 40.96,-44.9844 0,-0.1471 -0.468,-0.1768 -1.04,-0.066 -1.82266,0.3528 -7.33059,2.8561 -32.08,14.5805 -21.37238,10.1247 -27.27069,12.8396 -38.08,17.5281 -17.90714,7.7671 -32.76378,14.7232 -50.24,23.5228 -18.36659,9.248 -26.05712,13.5452 -38.24,21.3674 -11.14787,7.1576 -17.14739,11.8943 -24.98336,19.7248 -9.81424,9.8074 -20.08,23.4067 -19.26746,25.5241 0.24685,0.6433 0.89648,0.5359 8.00477,-1.3224 z M 548.16,1074.246 c 12.77501,-0.3303 14.73568,-0.555 20.16,-2.3106 21.81226,-7.0597 54.02787,-27.5574 94.88,-60.369 18.63418,-14.96659 28.34915,-23.48963 73.91968,-64.85034 9.50419,-8.62617 21.74432,-19.73088 27.20032,-24.67715 16.07411,-14.57235 17.73398,-16.63517 16.19162,-20.12198 -0.83181,-1.88045 -2.29847,-3.25757 -11.04474,-10.3705 -23.47949,-19.09481 -51.2952,-36.82653 -80.34688,-51.21885 -14.83782,-7.35075 -25.47216,-11.94636 -26.12426,-11.2896 -0.13216,0.13312 -1.88614,4.34602 -3.89776,9.36202 -4.67494,11.65712 -6.044,14.7647 -9.86844,22.4 -13.36964,26.69168 -30.44669,47.9248 -51.53524,64.07731 -10.40608,7.9704 -27.72185,15.67699 -46.58259,20.73213 -10.59917,2.84083 -26.67417,5.9664 -34.43459,6.69533 -7.74499,0.72745 -26.62566,1.05238 -50.59712,0.87078 -32.51088,-0.2463 -34.92768,-0.38896 -60.87238,-3.59245 -21.94586,-2.70976 -41.01799,-5.37702 -50.38586,-7.04659 -2.40803,-0.42915 -5.28803,-0.81542 -6.4,-0.8584 -1.87338,-0.0724 -2.02918,-0.0259 -2.12285,0.63293 -0.25673,1.80611 3.14749,13.49341 6.07095,20.84246 8.5719,21.54836 25.60051,48.6701 40.31628,64.2124 18.59191,19.6361 37.6802,30.7539 66.19869,38.5568 17.29319,4.7315 34.23559,7.6703 47.79095,8.2895 7.74035,0.3537 28.45868,0.3705 41.48422,0.034 z m 472.1632,-67.5971 c 2.6289,-2.924 9.0293,-12.45383 14.4593,-21.5289 8.3852,-14.01414 15.9368,-29.29168 18.6045,-37.63853 4.164,-13.02813 3.5757,-26.74726 -1.5764,-36.76147 -2.8457,-5.53146 -6.3913,-8.86003 -13.0614,-12.26192 -13.8825,-7.08054 -21.5644,-7.12918 -36.5224,-0.23126 -14.75317,6.80345 -27.5125,16.97209 -31.03592,24.7343 -1.47846,3.25712 -0.90387,4.94925 5.18829,15.27888 2.02409,3.432 9.29997,16.032 16.16861,28 6.86864,11.968 13.67362,23.776 15.12232,26.24 6.1984,10.5431 9.7782,15.84 10.7049,15.84 0.2451,0 1.1218,-0.752 1.9482,-1.6711 z M 492.32,823.02045 c 6.512,-0.17005 13.208,-0.45239 14.88,-0.62743 7.1295,-0.7463 12.55251,-3.00697 16.68554,-6.95561 9.47974,-9.05693 16.82131,-23.59363 15.3135,-30.3217 -0.72528,-3.23632 -2.41504,-4.30976 -5.86106,-3.7232 -3.4062,0.57978 -11.36448,0.73383 -52.69798,1.01997 -23.68643,0.16397 -41.8008,0.42061 -44.16,0.62566 -4.85539,0.42202 -17.70813,2.23511 -23.84,3.36308 -16.65072,3.06284 -28.22774,6.80982 -40.15846,12.99753 -9.45632,4.90439 -14.52388,9.25696 -12.21575,10.49226 2.05831,1.10157 38.74858,9.02841 52.69421,11.38448 8.04502,1.35917 12.33875,1.78656 20.8,2.0704 8.34259,0.27984 42.69024,0.089 58.56,-0.32544 z"
       id="path66" />
  </g>
</svg>
