<svg xmlns="http://www.w3.org/2000/svg" width="1175.4" height="1635.8"><path d="M418 1635q-7 0-11-4l-2-5 1-4q4-8 12-11 11-6 27-19c15-12 22-20 30-32 7-9 15-26 19-37 2-5 5-16 4-18 0-1-2-2-14-3q-26-1-41-6l-66-19a884 884 0 0 1-142-63l-49-29-41-30q-48-38-80-80-31-40-49-86a298 298 0 0 1-16-87c0-26 0-31 3-43 6-33 14-56 31-89a294 294 0 0 1 109-123 380 380 0 0 1 69-30l7-18c6-18 10-26 15-37q13-25 33-45c29-28 55-42 96-49a505 505 0 0 1 147-7l33 2c1-1-8-8-17-12l-16-7c-9-2-47-9-65-11h-29c-56 2-114 8-138 14l-42 13c-38 14-49 17-64 19h-44c-3-1-11-3-16-6-21-9-32-21-40-45-4-13-6-24-6-42 0-17 1-26 5-36l8-17 15-15c15-12 32-16 64-15 25 1 29 2 68 14 41 13 63 19 91 25a384 384 0 0 0 90 7q-4-4-17-12l-34-13a346 346 0 0 1-79-35q-25-13-38-17c-10-3-17-4-40-5l-48-3q-39-6-58-24-6-6-8-13l3-59q6-21 18-39c11-18 30-38 47-49q23-16 45-19l14 1c12 3 33 22 54 49l9 13c28 38 40 53 51 65 8 9 17 16 54 43a330 330 0 0 0 81 49q2 0-7-18a1079 1079 0 0 0-103-159 1071 1071 0 0 0-71-73c-13-13-15-18-16-32-1-15 1-25 12-40l10-15c5-6 16-15 25-20 13-7 45-18 60-21a139 139 0 0 1 41-1q16 2 28 16 6 6 8 10l1 3 2 7c4 11 4 15 8 49a462 462 0 0 0 41 162 292 292 0 0 0 40 59q2 2 6-13 7-27 9-46c1-15 2-63 1-84-2-47-9-74-30-121-13-29-17-43-19-61V53q1-8 7-17 4-7 13-15 12-12 23-17l7-3h69q23 1 33 7 7 3 14 11 11 11 16 21 4 9 4 25c0 10-1 16-4 27l-9 30a280 280 0 0 0-17 62 424 424 0 0 0-12 97l-2 34a399 399 0 0 0 13 95l7-12 29-64 34-93c5-19 9-38 14-82a274 274 0 0 1 18-82q14-27 38-34 23-6 70 15c25 12 33 16 39 21l13 13c6 7 12 21 14 31q5 18-3 38-4 13-21 31l-37 33c-34 27-41 34-59 61a446 446 0 0 0-70 174q0 8 2 9h6c11-2 19-8 41-28l68-66c23-26 30-37 50-79l17-36q10-18 23-28 21-20 48-23a86 86 0 0 1 60 18c9 7 25 24 33 36q14 19 18 41l1 13-1 13q-4 22-21 35a375 375 0 0 1-57 34l-38 18c-66 33-86 44-110 63a393 393 0 0 0-46 45l7 1a972 972 0 0 0 145-19c13-3 19-6 45-19 24-12 30-14 38-17 7-1 10-2 22-2l14 1q27 6 46 44c6 13 8 19 9 28 4 21-1 53-11 79q-11 27-23 33-13 7-38 7-15 1-32-2c-20-4-37-9-70-21a515 515 0 0 0-149-32l-62-1-23 5a133 133 0 0 0-57 32c-7 10-20 43-20 49v3l18 8a570 570 0 0 1 185 118h1l10-6c24-15 38-22 56-29q51-21 96-12 41 8 76 42a159 159 0 0 1 47 90c3 11 3 14 3 18a239 239 0 0 1-38 105c-20 30-55 66-95 99-18 14-21 18-24 21l-3 11a453 453 0 0 1-156 242 485 485 0 0 1-221 93c-19 4-25 5-36 5l-9 2c-3 2-5 5-13 20-21 38-34 57-48 71-10 10-18 16-35 24a156 156 0 0 1-79 19m100-263 3-1 5-13 12-28a246 246 0 0 1 108-104 3437 3437 0 0 1 158-91l89-52c2-4-1-20-6-32l-21-43-4 2-27 25-44 40c-68 60-119 96-162 114-27 12-42 15-75 17h-50a371 371 0 0 1-130-32 302 302 0 0 1-72-51q-16-16-25-29l-6-8-19-31-5-9a204 204 0 0 1-29-74q-4-16-7-13c-4 1-16 12-27 23-14 14-20 23-29 40-15 29-21 46-22 65v23q3 40 32 80a339 339 0 0 0 89 82l30 19a715 715 0 0 0 203 79zm122-13 26-7a328 328 0 0 0 170-114h-1l-32 15-38 17a917 917 0 0 0-89 45 131 131 0 0 0-44 45q-1 2 8-1m-92-285c13 0 15 0 20-2q33-11 95-60a1424 1424 0 0 0 118-110l-12-10a436 436 0 0 0-106-63l-4 9-10 23q-19 39-51 64-17 13-47 21a267 267 0 0 1-85 7c-32 0-35 0-61-3l-59-8 6 21c9 22 26 49 41 64 18 20 37 31 66 39a229 229 0 0 0 89 8m472-67 15-22q13-23 18-38 7-20-1-36-4-8-13-13c-14-7-22-7-37 0q-24 12-31 25c-1 3-1 5 5 15l42 70zM492 823l15-1q11 0 17-7c9-9 17-23 15-30q-1-4-6-4l-52 1-45 1-23 3q-24 4-41 13-14 8-12 11l74 13z" style="fill:#000;stroke-width:.32"/></svg>